<svg width="161" height="132" fill="none" xmlns="http://www.w3.org/2000/svg"><g clip-path="url(#clip0_1453_6984)"><path d="M49.045 111.971c0-24.02 25.023-21.986 35.975-26.646 10.953-4.66 25.041-12.01 32.458-29.917 6.34-15.303 18.165-21.889 36.614-22.459 0 2.747.428 78.68.428 78.68 0 3.521-2.851 6.375-6.368 6.393l-92.682.381a6.398 6.398 0 01-6.425-6.392v-.046.006z" fill="#EBE9E6"/><path d="M160.75 26.85H44.836v97.282H160.75V26.851z" stroke="#000" stroke-linejoin="round"/><path d="M160.75 26.85H44.836L58.057 7.868h89.472l13.221 18.984z" stroke="#000" stroke-linejoin="round"/><path d="M130.168 45.567h8.147m-8.147-4.177h12.982m9.042-5.85h-26.579a.781.781 0 00-.782.78v33.136c0 .43.35.78.782.78h26.579a.78.78 0 00.781-.78V36.32a.78.78 0 00-.781-.78z" stroke="#000" stroke-miterlimit="10" stroke-linecap="round"/><path d="M3.25 106.881h17.56m-7.218-5.629h11.06M9.447 112.51h15.52m3.027 0h6.528" stroke="#000" stroke-linecap="round" stroke-linejoin="round"/><path d="M92.168 26.85v22.688c0 .843.685 1.526 1.528 1.526.844 0 2.184-3.06 3.034-3.06.849 0 2.212 3.06 3.033 3.06.821 0 2.183-3.06 3.033-3.06.849 0 2.212 3.06 3.033 3.06.821 0 2.183-3.06 3.033-3.06.849 0 2.212 3.06 3.033 3.06.821 0 1.528-.683 1.528-1.526V26.85H92.168z" fill="#B5A32A"/><path d="M113.423 26.85H92.168l2.406-18.63h16.443l2.406 18.63z" fill="#8B833D"/></g><defs><clipPath id="clip0_1453_6984"><path fill="#fff" d="M0 0h161v132H0z"/></clipPath></defs></svg>