<svg width="161" height="132" fill="none" xmlns="http://www.w3.org/2000/svg"><g clip-path="url(#clip0_1453_6873)"><path d="M93.93 10.232l-78.733 15.58C8.6 27.116 4.304 33.545 5.605 40.17l8.746 44.553c1.3 6.625 7.704 10.937 14.302 9.631l78.733-15.58c6.598-1.306 10.893-7.734 9.592-14.359l-8.746-44.553c-1.301-6.624-7.704-10.936-14.302-9.63zM5.944 41.903L108.57 21.602M8.45 54.642l102.618-20.308" stroke="#000" stroke-linejoin="round"/><path d="M123.083 32.314H42.836c-6.725 0-12.177 5.473-12.177 12.225v45.41c0 6.752 5.452 12.226 12.177 12.226h80.247c6.726 0 12.177-5.474 12.177-12.226V44.54c0-6.752-5.451-12.225-12.177-12.225z" fill="#B7A52A"/><path d="M60.558 45.263H48.465a3.792 3.792 0 00-3.785 3.8v12.14c0 2.1 1.695 3.8 3.785 3.8h12.093a3.792 3.792 0 003.785-3.8v-12.14c0-2.099-1.695-3.8-3.785-3.8z" stroke="#000" stroke-linejoin="round"/><path d="M103.241 49.328h19.884M91.238 56.56h31.887M44.68 87.314h15.211m4.446 0h15.216m4.668 0h15.211" stroke="#000" stroke-linecap="round" stroke-linejoin="round"/><path d="M130.298 58.295l-25.171 9.367a3.93 3.93 0 00-2.553 3.685V93.06c0 6.394 2.295 19.379 27.472 30.724a3.926 3.926 0 003.232 0c25.171-11.345 27.472-24.33 27.472-30.724V71.347a3.926 3.926 0 00-2.553-3.685l-25.171-9.367a3.914 3.914 0 00-2.722 0h-.006z" fill="#fff" stroke="#000" stroke-miterlimit="10"/><path d="M133.272 59.557l24.943 9.276c1.52.567 1.964 2.026 1.964 3.655v20.65c0 8.089-5.022 21.213-27.658 30.652-.865.362-1.556.09-2.439-.272 2.067-3.033 4.446-11.339 4.824-20.44.481-11.58-10.747-26.181-1.634-43.521z" fill="#EBE9E6"/><path d="M139.874 83.18h-18.172c-.983 0-1.779.8-1.779 1.786v16.96c0 .986.796 1.786 1.779 1.786h18.172c.982 0 1.778-.8 1.778-1.786v-16.96c0-.986-.796-1.785-1.778-1.785z" stroke="#000" stroke-miterlimit="10"/><path d="M125.06 83.18v-4.86c0-3.18 2.565-5.755 5.731-5.755s5.731 2.576 5.731 5.754v4.862" stroke="#000" stroke-miterlimit="10"/><path d="M133.512 90.937a2.728 2.728 0 00-2.721-2.732 2.729 2.729 0 00-1.178 5.187v4.795h2.361v-4.795a2.72 2.72 0 001.544-2.455h-.006z" fill="#000"/></g><defs><clipPath id="clip0_1453_6873"><path fill="#fff" d="M0 0h161v132H0z"/></clipPath></defs></svg>