<svg width="161" height="132" fill="none" xmlns="http://www.w3.org/2000/svg"><path d="M63.782 24.71h26.945m-26.945 8.27h53.898m-53.898 8.276h53.898m-53.898 8.269h53.898m-53.898 8.276h26.945m38.044 2.962v-44.6c0-5.998-4.845-10.852-10.813-10.852h-73.26m8.412 75.79v29.117h42.322" stroke="#000" stroke-miterlimit="10"/><path d="M40.387 74.79V11.556c0-3.488 2.812-6.31 6.288-6.31 3.475 0 6.287 2.822 6.287 6.31v69.546H34.1" fill="#EBE9E6"/><path d="M40.387 74.79V11.556c0-3.488 2.812-6.31 6.288-6.31 3.475 0 6.287 2.822 6.287 6.31v69.546H34.1" stroke="#000" stroke-miterlimit="10"/><path d="M34.1 81.101c-3.468 0-6.288-2.83-6.288-6.31V40.417h12.575V74.79c0 3.48-2.82 6.31-6.287 6.31z" fill="#EBE9E6" stroke="#000" stroke-miterlimit="10"/><path d="M111.958 100.23c9.358 0 16.944-7.614 16.944-17.006s-7.586-17.006-16.944-17.006c-9.358 0-16.944 7.614-16.944 17.006s7.586 17.006 16.944 17.006z" fill="#B5A32A"/><path d="M125.721 103.809v22.929l-13.763-7.758-13.763 7.758v-22.929" stroke="#000" stroke-linejoin="round"/><path d="M136.091 80.715l-.967-.848c-1.066-.913-1.386-2.476-.845-3.76l.476-1.184c.779-1.819-.263-3.917-2.156-4.484l-1.246-.379c-1.353-.386-2.336-1.571-2.394-2.986l-.065-1.3c-.099-1.983-1.886-3.44-3.837-3.11l-1.262.238c-1.377.23-2.804-.452-3.451-1.653l-.639-1.201a3.272 3.272 0 00-4.804-1.087l-1.049.774c-1.164.814-2.681.856-3.87-.017l-1.032-.74c-1.599-1.152-3.853-.634-4.845 1.102l-.639 1.16a3.197 3.197 0 01-3.451 1.67l-1.263-.205c-1.975-.354-3.779 1.119-3.844 3.085l-.041 1.292c-.058 1.399-1.041 2.633-2.378 3.036l-1.221.362a3.336 3.336 0 00-2.156 4.467l.533 1.193a3.3 3.3 0 01-.844 3.785l-.943.847c-1.508 1.341-1.5 3.645.024 4.953l.968.848c1.065.913 1.385 2.476.844 3.76l-.648 1.217c-.778 1.818.263 3.916 2.156 4.484l1.246.378c1.353.387 2.337 1.572 2.394 2.987l.066 1.3c.098 1.983 1.885 3.439 3.836 3.11l1.262-.239c1.377-.23 2.804.453 3.451 1.654l.648 1.143a3.27 3.27 0 004.804 1.086l1.049-.773c1.164-.814 2.68-.856 3.869.017l1.033.74c1.598 1.152 3.853.633 4.845-1.102l.639-1.161a3.197 3.197 0 013.451-1.67l1.262.206c1.976.354 3.779-1.119 3.845-3.085l.098-1.284c.058-1.398 1.041-2.632 2.377-3.036l1.222-.362a3.336 3.336 0 002.156-4.467l-.533-1.193a3.3 3.3 0 01.844-3.785l.943-.847c1.557-1.275 1.557-3.636.082-4.945v.009z" stroke="#000" stroke-linejoin="round"/><path d="M115.13 73.137c-3.164 0-5.738 2.584-5.738 5.76v9.058h2.123v-9.058c0-2 1.624-3.629 3.615-3.629a3.627 3.627 0 013.615 3.629c0 1.999-1.508 3.513-3.401 3.62v2.13c3.065-.115 5.533-2.649 5.533-5.759 0-3.11-2.574-5.759-5.738-5.759" fill="#fff"/><path d="M112.401 87.535c0 2-1.623 3.628-3.615 3.628a3.627 3.627 0 01-3.615-3.628c0-2 1.508-3.513 3.402-3.62v-2.13a5.765 5.765 0 00-5.534 5.758c0 3.11 2.574 5.76 5.739 5.76 3.164 0 5.738-2.584 5.738-5.76v-9.05h-2.123v9.05l.008-.008z" fill="#fff"/></svg>